<mxfile host="app.diagrams.net" modified="2023-04-19T09:50:11.680Z" agent="Mozilla/5.0 (Windows NT 10.0; Win64; x64) AppleWebKit/537.36 (KHTML, like Gecko) Chrome/112.0.0.0 Safari/537.36" etag="n5zNurf0Vn9w2AcT54A3" version="21.1.8" type="github">
  <diagram name="第 1 页" id="VOTizrcGuPGLZHzvORkb">
    <mxGraphModel dx="794" dy="470" grid="1" gridSize="10" guides="1" tooltips="1" connect="1" arrows="1" fold="1" page="1" pageScale="1" pageWidth="827" pageHeight="1169" math="0" shadow="0">
      <root>
        <mxCell id="0" />
        <mxCell id="1" parent="0" />
        <mxCell id="c8H1QGdXv_rYbwhzCvip-1" style="edgeStyle=orthogonalEdgeStyle;rounded=0;orthogonalLoop=1;jettySize=auto;html=1;entryX=0.5;entryY=0;entryDx=0;entryDy=0;fontSize=16;" parent="1" source="c8H1QGdXv_rYbwhzCvip-2" target="c8H1QGdXv_rYbwhzCvip-4" edge="1">
          <mxGeometry relative="1" as="geometry" />
        </mxCell>
        <mxCell id="c8H1QGdXv_rYbwhzCvip-2" value="开始" style="rounded=1;whiteSpace=wrap;html=1;fontSize=16;glass=0;strokeWidth=1;shadow=0;" parent="1" vertex="1">
          <mxGeometry x="190" y="20" width="80" height="30" as="geometry" />
        </mxCell>
        <mxCell id="c8H1QGdXv_rYbwhzCvip-3" style="edgeStyle=orthogonalEdgeStyle;rounded=0;orthogonalLoop=1;jettySize=auto;html=1;exitX=0.5;exitY=1;exitDx=0;exitDy=0;entryX=0.5;entryY=0;entryDx=0;entryDy=0;fontSize=16;" parent="1" source="c8H1QGdXv_rYbwhzCvip-4" target="c8H1QGdXv_rYbwhzCvip-46" edge="1">
          <mxGeometry relative="1" as="geometry">
            <mxPoint x="213.75" y="100" as="targetPoint" />
          </mxGeometry>
        </mxCell>
        <mxCell id="c8H1QGdXv_rYbwhzCvip-4" value="开始测试" style="rounded=0;whiteSpace=wrap;html=1;fontSize=16;" parent="1" vertex="1">
          <mxGeometry x="190" y="70" width="80" height="30" as="geometry" />
        </mxCell>
        <mxCell id="c8H1QGdXv_rYbwhzCvip-5" style="edgeStyle=orthogonalEdgeStyle;rounded=0;orthogonalLoop=1;jettySize=auto;html=1;exitX=0.5;exitY=1;exitDx=0;exitDy=0;fontSize=16;" parent="1" source="c8H1QGdXv_rYbwhzCvip-6" target="c8H1QGdXv_rYbwhzCvip-8" edge="1">
          <mxGeometry relative="1" as="geometry">
            <Array as="points">
              <mxPoint x="230" y="320" />
              <mxPoint x="230" y="320" />
            </Array>
          </mxGeometry>
        </mxCell>
        <mxCell id="c8H1QGdXv_rYbwhzCvip-6" value="停止测试服务器中正在进行的快照播放任务" style="rounded=0;whiteSpace=wrap;html=1;fontSize=16;" parent="1" vertex="1">
          <mxGeometry x="147.5" y="250" width="165" height="60" as="geometry" />
        </mxCell>
        <mxCell id="c8H1QGdXv_rYbwhzCvip-7" style="edgeStyle=orthogonalEdgeStyle;rounded=0;orthogonalLoop=1;jettySize=auto;html=1;entryX=0.5;entryY=0;entryDx=0;entryDy=0;fontSize=16;" parent="1" source="c8H1QGdXv_rYbwhzCvip-8" target="c8H1QGdXv_rYbwhzCvip-49" edge="1">
          <mxGeometry relative="1" as="geometry">
            <Array as="points">
              <mxPoint x="233" y="370" />
              <mxPoint x="233" y="370" />
            </Array>
          </mxGeometry>
        </mxCell>
        <mxCell id="c8H1QGdXv_rYbwhzCvip-8" value="开启快照播放控制线程" style="rounded=0;whiteSpace=wrap;html=1;fontSize=16;" parent="1" vertex="1">
          <mxGeometry x="141.25" y="330" width="177.5" height="30" as="geometry" />
        </mxCell>
        <mxCell id="c8H1QGdXv_rYbwhzCvip-9" style="edgeStyle=orthogonalEdgeStyle;rounded=0;orthogonalLoop=1;jettySize=auto;html=1;exitX=1;exitY=0.5;exitDx=0;exitDy=0;fontSize=16;entryX=0.5;entryY=0;entryDx=0;entryDy=0;" parent="1" source="c8H1QGdXv_rYbwhzCvip-10" target="c8H1QGdXv_rYbwhzCvip-14" edge="1">
          <mxGeometry relative="1" as="geometry">
            <Array as="points">
              <mxPoint x="390" y="590" />
              <mxPoint x="390" y="20" />
              <mxPoint x="503" y="20" />
            </Array>
            <mxPoint x="520" y="50" as="targetPoint" />
          </mxGeometry>
        </mxCell>
        <mxCell id="c8H1QGdXv_rYbwhzCvip-52" style="edgeStyle=orthogonalEdgeStyle;rounded=0;orthogonalLoop=1;jettySize=auto;html=1;entryX=0;entryY=0.5;entryDx=0;entryDy=0;fontSize=16;exitX=0;exitY=0.5;exitDx=0;exitDy=0;" parent="1" source="c8H1QGdXv_rYbwhzCvip-10" target="c8H1QGdXv_rYbwhzCvip-43" edge="1">
          <mxGeometry relative="1" as="geometry">
            <Array as="points">
              <mxPoint x="120" y="590" />
              <mxPoint x="120" y="715" />
            </Array>
            <mxPoint x="170" y="530" as="sourcePoint" />
          </mxGeometry>
        </mxCell>
        <mxCell id="c8H1QGdXv_rYbwhzCvip-10" value="是否回放完配置表&lt;br style=&quot;font-size: 16px;&quot;&gt;中最后一个快照" style="rhombus;whiteSpace=wrap;html=1;fontSize=16;" parent="1" vertex="1">
          <mxGeometry x="128.75" y="540" width="198.75" height="100" as="geometry" />
        </mxCell>
        <mxCell id="c8H1QGdXv_rYbwhzCvip-11" style="edgeStyle=orthogonalEdgeStyle;rounded=0;orthogonalLoop=1;jettySize=auto;html=1;entryX=0.5;entryY=0;entryDx=0;entryDy=0;fontSize=16;" parent="1" source="c8H1QGdXv_rYbwhzCvip-12" target="c8H1QGdXv_rYbwhzCvip-20" edge="1">
          <mxGeometry relative="1" as="geometry" />
        </mxCell>
        <mxCell id="c8H1QGdXv_rYbwhzCvip-12" value="开始播放" style="rounded=0;whiteSpace=wrap;html=1;fontSize=16;" parent="1" vertex="1">
          <mxGeometry x="447.75" y="120" width="110" height="30" as="geometry" />
        </mxCell>
        <mxCell id="c8H1QGdXv_rYbwhzCvip-13" style="edgeStyle=orthogonalEdgeStyle;rounded=0;orthogonalLoop=1;jettySize=auto;html=1;entryX=0.5;entryY=0;entryDx=0;entryDy=0;fontSize=16;" parent="1" source="c8H1QGdXv_rYbwhzCvip-14" target="c8H1QGdXv_rYbwhzCvip-12" edge="1">
          <mxGeometry relative="1" as="geometry">
            <Array as="points">
              <mxPoint x="475" y="80" />
              <mxPoint x="475" y="80" />
            </Array>
          </mxGeometry>
        </mxCell>
        <mxCell id="c8H1QGdXv_rYbwhzCvip-14" value="读取该轮回放快照文件" style="rounded=0;whiteSpace=wrap;html=1;fontSize=16;" parent="1" vertex="1">
          <mxGeometry x="435.75" y="50" width="135" height="40" as="geometry" />
        </mxCell>
        <mxCell id="c8H1QGdXv_rYbwhzCvip-15" style="edgeStyle=orthogonalEdgeStyle;rounded=0;orthogonalLoop=1;jettySize=auto;html=1;fontSize=16;" parent="1" source="c8H1QGdXv_rYbwhzCvip-16" target="c8H1QGdXv_rYbwhzCvip-10" edge="1">
          <mxGeometry relative="1" as="geometry">
            <Array as="points">
              <mxPoint x="145" y="520" />
              <mxPoint x="228" y="520" />
            </Array>
          </mxGeometry>
        </mxCell>
        <mxCell id="c8H1QGdXv_rYbwhzCvip-16" value="读取配置快照&lt;br&gt;回放配置列表" style="rounded=0;whiteSpace=wrap;html=1;fontSize=16;" parent="1" vertex="1">
          <mxGeometry x="90" y="460" width="110" height="50" as="geometry" />
        </mxCell>
        <mxCell id="c8H1QGdXv_rYbwhzCvip-17" style="edgeStyle=orthogonalEdgeStyle;rounded=0;orthogonalLoop=1;jettySize=auto;html=1;fontSize=16;" parent="1" source="c8H1QGdXv_rYbwhzCvip-18" edge="1">
          <mxGeometry relative="1" as="geometry">
            <Array as="points">
              <mxPoint x="325" y="520" />
              <mxPoint x="228" y="520" />
            </Array>
            <mxPoint x="228" y="540" as="targetPoint" />
          </mxGeometry>
        </mxCell>
        <mxCell id="c8H1QGdXv_rYbwhzCvip-18" value="读取录制快照&lt;br style=&quot;font-size: 16px;&quot;&gt;回放配置列表" style="rounded=0;whiteSpace=wrap;html=1;fontSize=16;" parent="1" vertex="1">
          <mxGeometry x="270" y="460" width="110" height="50" as="geometry" />
        </mxCell>
        <mxCell id="c8H1QGdXv_rYbwhzCvip-19" style="edgeStyle=orthogonalEdgeStyle;rounded=0;orthogonalLoop=1;jettySize=auto;html=1;fontSize=16;" parent="1" source="c8H1QGdXv_rYbwhzCvip-20" target="c8H1QGdXv_rYbwhzCvip-22" edge="1">
          <mxGeometry relative="1" as="geometry">
            <Array as="points">
              <mxPoint x="475" y="280" />
              <mxPoint x="475" y="280" />
            </Array>
          </mxGeometry>
        </mxCell>
        <mxCell id="c8H1QGdXv_rYbwhzCvip-20" value="存储该轮快照回放详细信息至数据库" style="rounded=0;whiteSpace=wrap;html=1;fontSize=16;" parent="1" vertex="1">
          <mxGeometry x="434.75" y="180" width="136" height="45" as="geometry" />
        </mxCell>
        <mxCell id="c8H1QGdXv_rYbwhzCvip-54" style="edgeStyle=orthogonalEdgeStyle;rounded=0;orthogonalLoop=1;jettySize=auto;html=1;fontSize=16;" parent="1" source="c8H1QGdXv_rYbwhzCvip-22" target="c8H1QGdXv_rYbwhzCvip-29" edge="1">
          <mxGeometry relative="1" as="geometry" />
        </mxCell>
        <mxCell id="c8H1QGdXv_rYbwhzCvip-22" value="开启火焰图生成线程" style="rounded=0;whiteSpace=wrap;html=1;fontSize=16;" parent="1" vertex="1">
          <mxGeometry x="424.75" y="250" width="156" height="30" as="geometry" />
        </mxCell>
        <mxCell id="c8H1QGdXv_rYbwhzCvip-23" style="edgeStyle=orthogonalEdgeStyle;rounded=0;orthogonalLoop=1;jettySize=auto;html=1;entryX=0.5;entryY=0;entryDx=0;entryDy=0;exitX=1;exitY=0.5;exitDx=0;exitDy=0;fontSize=16;" parent="1" source="c8H1QGdXv_rYbwhzCvip-25" target="c8H1QGdXv_rYbwhzCvip-27" edge="1">
          <mxGeometry relative="1" as="geometry">
            <mxPoint x="550" y="420" as="sourcePoint" />
            <Array as="points">
              <mxPoint x="603" y="400" />
              <mxPoint x="590" y="400" />
              <mxPoint x="590" y="30" />
              <mxPoint x="680" y="30" />
            </Array>
          </mxGeometry>
        </mxCell>
        <mxCell id="c8H1QGdXv_rYbwhzCvip-24" style="edgeStyle=orthogonalEdgeStyle;rounded=0;orthogonalLoop=1;jettySize=auto;html=1;exitX=0;exitY=0.5;exitDx=0;exitDy=0;fontSize=16;entryX=0.5;entryY=0;entryDx=0;entryDy=0;" parent="1" source="c8H1QGdXv_rYbwhzCvip-25" target="c8H1QGdXv_rYbwhzCvip-42" edge="1">
          <mxGeometry relative="1" as="geometry">
            <mxPoint x="401" y="590" as="targetPoint" />
            <Array as="points">
              <mxPoint x="403" y="600" />
              <mxPoint x="405" y="600" />
            </Array>
          </mxGeometry>
        </mxCell>
        <mxCell id="c8H1QGdXv_rYbwhzCvip-25" value="是否回放完该轮快照&lt;br style=&quot;font-size: 16px;&quot;&gt;文件的最后一条指令" style="rhombus;whiteSpace=wrap;html=1;fontSize=16;" parent="1" vertex="1">
          <mxGeometry x="403" y="365" width="199.5" height="130" as="geometry" />
        </mxCell>
        <mxCell id="c8H1QGdXv_rYbwhzCvip-55" style="edgeStyle=orthogonalEdgeStyle;rounded=0;orthogonalLoop=1;jettySize=auto;html=1;fontSize=16;" parent="1" source="c8H1QGdXv_rYbwhzCvip-27" target="c8H1QGdXv_rYbwhzCvip-32" edge="1">
          <mxGeometry relative="1" as="geometry" />
        </mxCell>
        <mxCell id="c8H1QGdXv_rYbwhzCvip-27" value="开启指令发送延时线程" style="rounded=0;whiteSpace=wrap;html=1;fontSize=16;" parent="1" vertex="1">
          <mxGeometry x="625" y="60" width="110" height="50" as="geometry" />
        </mxCell>
        <mxCell id="c8H1QGdXv_rYbwhzCvip-53" style="edgeStyle=orthogonalEdgeStyle;rounded=0;orthogonalLoop=1;jettySize=auto;html=1;entryX=0.5;entryY=0;entryDx=0;entryDy=0;fontSize=16;" parent="1" source="c8H1QGdXv_rYbwhzCvip-29" target="c8H1QGdXv_rYbwhzCvip-25" edge="1">
          <mxGeometry relative="1" as="geometry" />
        </mxCell>
        <mxCell id="c8H1QGdXv_rYbwhzCvip-29" value="实例化数据分析类" style="rounded=0;whiteSpace=wrap;html=1;fontSize=16;" parent="1" vertex="1">
          <mxGeometry x="429.5" y="310" width="146.5" height="30" as="geometry" />
        </mxCell>
        <mxCell id="c8H1QGdXv_rYbwhzCvip-30" style="edgeStyle=orthogonalEdgeStyle;rounded=0;orthogonalLoop=1;jettySize=auto;html=1;fontSize=16;" parent="1" source="c8H1QGdXv_rYbwhzCvip-32" target="c8H1QGdXv_rYbwhzCvip-34" edge="1">
          <mxGeometry relative="1" as="geometry">
            <Array as="points">
              <mxPoint x="670" y="260" />
              <mxPoint x="670" y="260" />
            </Array>
          </mxGeometry>
        </mxCell>
        <mxCell id="c8H1QGdXv_rYbwhzCvip-31" style="edgeStyle=orthogonalEdgeStyle;rounded=0;orthogonalLoop=1;jettySize=auto;html=1;entryX=0.5;entryY=0;entryDx=0;entryDy=0;exitX=1;exitY=0.5;exitDx=0;exitDy=0;fontSize=16;" parent="1" source="c8H1QGdXv_rYbwhzCvip-32" target="c8H1QGdXv_rYbwhzCvip-50" edge="1">
          <mxGeometry relative="1" as="geometry">
            <Array as="points">
              <mxPoint x="780" y="193" />
              <mxPoint x="780" y="380" />
              <mxPoint x="750" y="380" />
            </Array>
          </mxGeometry>
        </mxCell>
        <mxCell id="c8H1QGdXv_rYbwhzCvip-32" value="当前指令是否&lt;br style=&quot;font-size: 16px;&quot;&gt;是行军指令" style="rhombus;whiteSpace=wrap;html=1;fontSize=16;" parent="1" vertex="1">
          <mxGeometry x="600" y="150" width="160" height="85" as="geometry" />
        </mxCell>
        <mxCell id="c8H1QGdXv_rYbwhzCvip-33" style="edgeStyle=orthogonalEdgeStyle;rounded=0;orthogonalLoop=1;jettySize=auto;html=1;entryX=0.5;entryY=0;entryDx=0;entryDy=0;fontSize=16;" parent="1" source="c8H1QGdXv_rYbwhzCvip-34" target="c8H1QGdXv_rYbwhzCvip-36" edge="1">
          <mxGeometry relative="1" as="geometry">
            <Array as="points">
              <mxPoint x="670" y="285" />
              <mxPoint x="670" y="370" />
            </Array>
          </mxGeometry>
        </mxCell>
        <mxCell id="c8H1QGdXv_rYbwhzCvip-34" value="寻路系统对行军指令做出相应处理" style="rounded=0;whiteSpace=wrap;html=1;fontSize=16;" parent="1" vertex="1">
          <mxGeometry x="602.5" y="270" width="135" height="50" as="geometry" />
        </mxCell>
        <mxCell id="c8H1QGdXv_rYbwhzCvip-35" style="edgeStyle=orthogonalEdgeStyle;rounded=0;orthogonalLoop=1;jettySize=auto;html=1;fontSize=16;entryX=0.5;entryY=1;entryDx=0;entryDy=0;" parent="1" source="c8H1QGdXv_rYbwhzCvip-36" target="c8H1QGdXv_rYbwhzCvip-25" edge="1">
          <mxGeometry relative="1" as="geometry">
            <mxPoint x="470" y="480" as="targetPoint" />
            <Array as="points">
              <mxPoint x="670" y="530" />
              <mxPoint x="503" y="530" />
            </Array>
          </mxGeometry>
        </mxCell>
        <mxCell id="c8H1QGdXv_rYbwhzCvip-36" value="数据分析类获取相关指标数据" style="rounded=0;whiteSpace=wrap;html=1;fontSize=16;" parent="1" vertex="1">
          <mxGeometry x="615" y="350" width="115" height="50" as="geometry" />
        </mxCell>
        <mxCell id="c8H1QGdXv_rYbwhzCvip-41" style="edgeStyle=orthogonalEdgeStyle;rounded=0;orthogonalLoop=1;jettySize=auto;html=1;entryX=0.5;entryY=0;entryDx=0;entryDy=0;fontSize=16;" parent="1" source="c8H1QGdXv_rYbwhzCvip-42" target="c8H1QGdXv_rYbwhzCvip-43" edge="1">
          <mxGeometry relative="1" as="geometry" />
        </mxCell>
        <mxCell id="c8H1QGdXv_rYbwhzCvip-66" style="edgeStyle=orthogonalEdgeStyle;rounded=0;orthogonalLoop=1;jettySize=auto;html=1;entryX=0.5;entryY=1;entryDx=0;entryDy=0;exitX=0;exitY=0.5;exitDx=0;exitDy=0;fontSize=16;" parent="1" source="c8H1QGdXv_rYbwhzCvip-42" target="c8H1QGdXv_rYbwhzCvip-10" edge="1">
          <mxGeometry relative="1" as="geometry">
            <Array as="points">
              <mxPoint x="350" y="660" />
              <mxPoint x="228" y="660" />
            </Array>
          </mxGeometry>
        </mxCell>
        <mxCell id="c8H1QGdXv_rYbwhzCvip-42" value="清空数据分析类，结束监控" style="rounded=0;whiteSpace=wrap;html=1;fontSize=16;" parent="1" vertex="1">
          <mxGeometry x="350" y="630" width="110" height="50" as="geometry" />
        </mxCell>
        <mxCell id="c8H1QGdXv_rYbwhzCvip-43" value="结束" style="rounded=1;whiteSpace=wrap;html=1;fontSize=16;glass=0;strokeWidth=1;shadow=0;" parent="1" vertex="1">
          <mxGeometry x="365" y="700" width="80" height="30" as="geometry" />
        </mxCell>
        <mxCell id="c8H1QGdXv_rYbwhzCvip-44" style="edgeStyle=orthogonalEdgeStyle;rounded=0;orthogonalLoop=1;jettySize=auto;html=1;entryX=0.5;entryY=0;entryDx=0;entryDy=0;fontSize=16;" parent="1" source="c8H1QGdXv_rYbwhzCvip-46" target="c8H1QGdXv_rYbwhzCvip-6" edge="1">
          <mxGeometry relative="1" as="geometry" />
        </mxCell>
        <mxCell id="c8H1QGdXv_rYbwhzCvip-45" style="edgeStyle=orthogonalEdgeStyle;rounded=0;orthogonalLoop=1;jettySize=auto;html=1;exitX=1;exitY=0.5;exitDx=0;exitDy=0;entryX=1;entryY=0.5;entryDx=0;entryDy=0;fontSize=16;" parent="1" source="c8H1QGdXv_rYbwhzCvip-46" target="c8H1QGdXv_rYbwhzCvip-8" edge="1">
          <mxGeometry relative="1" as="geometry" />
        </mxCell>
        <mxCell id="c8H1QGdXv_rYbwhzCvip-46" value="若当前测试服务器&lt;br&gt;中有正在进行的任务" style="rhombus;whiteSpace=wrap;html=1;fontSize=16;" parent="1" vertex="1">
          <mxGeometry x="132.5" y="120" width="195" height="110" as="geometry" />
        </mxCell>
        <mxCell id="c8H1QGdXv_rYbwhzCvip-47" style="edgeStyle=orthogonalEdgeStyle;rounded=0;orthogonalLoop=1;jettySize=auto;html=1;entryX=0.5;entryY=0;entryDx=0;entryDy=0;exitX=1;exitY=0.5;exitDx=0;exitDy=0;fontSize=16;" parent="1" source="c8H1QGdXv_rYbwhzCvip-49" target="c8H1QGdXv_rYbwhzCvip-18" edge="1">
          <mxGeometry relative="1" as="geometry">
            <Array as="points">
              <mxPoint x="325" y="425" />
            </Array>
          </mxGeometry>
        </mxCell>
        <mxCell id="c8H1QGdXv_rYbwhzCvip-48" style="edgeStyle=orthogonalEdgeStyle;rounded=0;orthogonalLoop=1;jettySize=auto;html=1;entryX=0.5;entryY=0;entryDx=0;entryDy=0;exitX=0;exitY=0.5;exitDx=0;exitDy=0;fontSize=16;" parent="1" source="c8H1QGdXv_rYbwhzCvip-49" target="c8H1QGdXv_rYbwhzCvip-16" edge="1">
          <mxGeometry relative="1" as="geometry" />
        </mxCell>
        <mxCell id="c8H1QGdXv_rYbwhzCvip-49" value="当前测试文件&lt;br style=&quot;font-size: 16px;&quot;&gt;为录制文件" style="rhombus;whiteSpace=wrap;html=1;fontSize=16;" parent="1" vertex="1">
          <mxGeometry x="152.5" y="380" width="160" height="90" as="geometry" />
        </mxCell>
        <mxCell id="c8H1QGdXv_rYbwhzCvip-51" style="edgeStyle=orthogonalEdgeStyle;rounded=0;orthogonalLoop=1;jettySize=auto;html=1;fontSize=16;entryX=0.5;entryY=1;entryDx=0;entryDy=0;" parent="1" source="c8H1QGdXv_rYbwhzCvip-50" target="c8H1QGdXv_rYbwhzCvip-25" edge="1">
          <mxGeometry relative="1" as="geometry">
            <mxPoint x="490" y="480" as="targetPoint" />
            <Array as="points">
              <mxPoint x="745" y="530" />
              <mxPoint x="503" y="530" />
            </Array>
          </mxGeometry>
        </mxCell>
        <mxCell id="c8H1QGdXv_rYbwhzCvip-50" value="相关系统对指令做出相应处理" style="rounded=0;whiteSpace=wrap;html=1;fontSize=16;" parent="1" vertex="1">
          <mxGeometry x="690" y="420" width="120" height="50" as="geometry" />
        </mxCell>
        <mxCell id="c8H1QGdXv_rYbwhzCvip-56" value="是" style="text;html=1;strokeColor=none;fillColor=none;align=center;verticalAlign=middle;whiteSpace=wrap;rounded=0;fontSize=16;" parent="1" vertex="1">
          <mxGeometry x="170" y="220" width="60" height="30" as="geometry" />
        </mxCell>
        <mxCell id="c8H1QGdXv_rYbwhzCvip-57" value="否" style="text;html=1;strokeColor=none;fillColor=none;align=center;verticalAlign=middle;whiteSpace=wrap;rounded=0;fontSize=16;" parent="1" vertex="1">
          <mxGeometry x="305" y="150" width="60" height="30" as="geometry" />
        </mxCell>
        <mxCell id="c8H1QGdXv_rYbwhzCvip-58" value="是" style="text;html=1;strokeColor=none;fillColor=none;align=center;verticalAlign=middle;whiteSpace=wrap;rounded=0;fontSize=16;" parent="1" vertex="1">
          <mxGeometry x="270" y="390" width="60" height="30" as="geometry" />
        </mxCell>
        <mxCell id="c8H1QGdXv_rYbwhzCvip-59" value="否" style="text;html=1;strokeColor=none;fillColor=none;align=center;verticalAlign=middle;whiteSpace=wrap;rounded=0;fontSize=16;" parent="1" vertex="1">
          <mxGeometry x="130" y="390" width="60" height="30" as="geometry" />
        </mxCell>
        <mxCell id="c8H1QGdXv_rYbwhzCvip-60" value="是" style="text;html=1;strokeColor=none;fillColor=none;align=center;verticalAlign=middle;whiteSpace=wrap;rounded=0;fontSize=16;" parent="1" vertex="1">
          <mxGeometry x="102.5" y="555" width="60" height="30" as="geometry" />
        </mxCell>
        <mxCell id="c8H1QGdXv_rYbwhzCvip-61" value="否" style="text;html=1;strokeColor=none;fillColor=none;align=center;verticalAlign=middle;whiteSpace=wrap;rounded=0;fontSize=16;" parent="1" vertex="1">
          <mxGeometry x="280" y="550" width="60" height="30" as="geometry" />
        </mxCell>
        <mxCell id="c8H1QGdXv_rYbwhzCvip-62" value="是" style="text;html=1;strokeColor=none;fillColor=none;align=center;verticalAlign=middle;whiteSpace=wrap;rounded=0;fontSize=16;" parent="1" vertex="1">
          <mxGeometry x="385" y="445" width="60" height="30" as="geometry" />
        </mxCell>
        <mxCell id="c8H1QGdXv_rYbwhzCvip-63" value="否" style="text;html=1;strokeColor=none;fillColor=none;align=center;verticalAlign=middle;whiteSpace=wrap;rounded=0;fontSize=16;" parent="1" vertex="1">
          <mxGeometry x="549" y="380" width="60" height="30" as="geometry" />
        </mxCell>
        <mxCell id="c8H1QGdXv_rYbwhzCvip-64" value="是" style="text;html=1;strokeColor=none;fillColor=none;align=center;verticalAlign=middle;whiteSpace=wrap;rounded=0;fontSize=16;" parent="1" vertex="1">
          <mxGeometry x="630" y="230" width="60" height="30" as="geometry" />
        </mxCell>
        <mxCell id="c8H1QGdXv_rYbwhzCvip-65" value="否" style="text;html=1;strokeColor=none;fillColor=none;align=center;verticalAlign=middle;whiteSpace=wrap;rounded=0;fontSize=16;" parent="1" vertex="1">
          <mxGeometry x="730" y="160" width="60" height="30" as="geometry" />
        </mxCell>
      </root>
    </mxGraphModel>
  </diagram>
</mxfile>
